<?xml version="1.0" standalone="no"?>
<!DOCTYPE svg PUBLIC "-//W3C//DTD SVG 20010904//EN"
 "http://www.w3.org/TR/2001/REC-SVG-20010904/DTD/svg10.dtd">
<svg version="1.0" xmlns="http://www.w3.org/2000/svg"
 width="473.000000pt" height="473.000000pt" viewBox="0 0 473.000000 473.000000"
 preserveAspectRatio="xMidYMid meet">
<metadata>
Created by potrace 1.14, written by Peter Selinger 2001-2017
</metadata>
<g transform="translate(0.000000,473.000000) scale(0.100000,-0.100000)"
fill="#000000" stroke="none">
<path d="M2480 3888 c1 -46 7 -119 15 -163 8 -44 15 -102 15 -130 0 -27 7 -79
16 -115 16 -66 12 -164 -7 -175 -5 -4 -9 -24 -9 -45 0 -21 -7 -45 -15 -54 -8
-8 -15 -26 -15 -39 0 -14 -7 -41 -15 -60 -8 -20 -15 -52 -15 -71 0 -19 -4 -38
-10 -41 -5 -3 -10 -23 -10 -43 -1 -20 -7 -55 -15 -77 -8 -22 -15 -48 -15 -58
0 -10 -6 -28 -14 -40 -8 -12 -17 -38 -21 -57 -4 -19 -15 -46 -25 -60 -10 -14
-21 -35 -24 -47 -4 -13 -12 -23 -17 -23 -5 0 -9 -8 -9 -17 0 -10 -12 -29 -25
-42 -14 -13 -25 -30 -25 -39 0 -8 -6 -23 -14 -31 -8 -9 -17 -41 -20 -71 -4
-30 -11 -59 -16 -64 -6 -6 -10 -17 -10 -25 -1 -22 -32 -57 -57 -65 -12 -4 -24
-13 -27 -21 -3 -8 -10 -15 -16 -15 -17 0 -11 49 10 79 17 22 19 32 11 55 -11
26 -7 150 4 187 4 11 11 19 16 19 5 0 9 11 9 25 0 14 5 25 10 25 6 0 10 9 10
19 0 11 7 26 15 35 8 8 15 22 15 31 0 9 7 23 15 31 8 9 15 31 15 50 0 19 5 34
10 34 6 0 10 8 10 18 0 21 28 108 46 144 8 14 14 34 14 45 0 10 7 27 15 37 8
11 15 32 15 46 0 15 3 30 7 34 9 9 42 135 42 164 1 12 -3 22 -9 22 -5 0 -10
-11 -10 -24 0 -13 -7 -29 -15 -36 -8 -7 -15 -20 -15 -29 0 -10 -7 -26 -15 -37
-8 -10 -15 -26 -15 -35 0 -9 -7 -19 -15 -23 -8 -3 -15 -14 -15 -25 0 -11 -4
-22 -9 -26 -5 -3 -12 -19 -16 -35 -4 -17 -11 -30 -16 -30 -5 0 -9 -6 -9 -14 0
-19 -30 -73 -57 -104 -13 -14 -23 -31 -23 -38 0 -16 -39 -92 -51 -100 -5 -3
-9 -16 -9 -30 0 -29 -25 -58 -57 -68 -13 -4 -23 -12 -23 -17 0 -5 -7 -9 -15
-9 -8 0 -15 -3 -15 -7 0 -5 -18 -19 -40 -33 -22 -13 -40 -28 -40 -32 0 -4 -6
-8 -14 -8 -8 0 -16 -6 -19 -14 -3 -8 -16 -16 -29 -18 -17 -2 -24 -11 -26 -32
-3 -27 -2 -28 25 -23 15 3 36 9 45 12 13 5 15 2 11 -14 -3 -12 -9 -21 -14 -21
-5 0 -9 -7 -9 -15 0 -8 -5 -15 -11 -15 -7 0 -18 -8 -25 -17 -12 -16 -13 -15
-14 15 0 41 -23 39 -28 -1 -2 -15 -10 -27 -18 -27 -8 0 -14 -4 -14 -10 0 -5
-11 -12 -25 -16 -30 -7 -33 -24 -6 -24 11 0 23 -4 26 -10 3 -5 1 -10 -5 -10
-6 0 -14 -8 -17 -17 -4 -10 -17 -29 -30 -43 -12 -13 -25 -37 -28 -52 -4 -15
-11 -30 -16 -33 -5 -4 -9 -15 -9 -26 0 -11 -7 -22 -15 -25 -8 -4 -15 -16 -15
-29 0 -12 -7 -28 -15 -35 -8 -7 -15 -21 -15 -31 0 -11 -4 -19 -10 -19 -5 0
-10 -9 -10 -19 0 -26 -28 -77 -62 -113 -16 -16 -28 -35 -28 -42 0 -8 -7 -16
-15 -20 -8 -3 -15 -14 -15 -24 0 -10 -8 -26 -17 -35 -15 -13 -21 -13 -35 -3
-25 18 -40 94 -27 140 8 30 7 42 -6 62 -18 28 -60 32 -87 7 -38 -34 -30 7 12
59 8 10 24 18 35 18 25 0 51 38 37 52 -11 11 42 108 59 108 5 0 9 6 9 13 0 7
14 27 30 45 17 18 30 37 30 43 0 5 4 9 9 9 5 0 12 11 15 25 4 14 11 25 16 25
6 0 10 6 10 14 0 8 7 16 15 20 8 3 15 12 15 19 0 8 6 20 13 26 8 6 20 36 27
66 8 33 19 55 27 55 7 0 13 11 13 25 0 22 -4 25 -36 25 -63 0 -90 25 -115 104
-13 39 -26 75 -31 81 -4 5 -8 20 -8 34 0 14 -8 45 -17 68 -24 58 -52 58 -82 1
-32 -63 -45 -82 -58 -91 -7 -4 -13 -13 -13 -20 0 -7 -11 -29 -25 -49 -14 -20
-25 -42 -25 -48 0 -6 -7 -18 -15 -26 -8 -9 -15 -24 -15 -35 0 -10 -5 -19 -11
-19 -12 0 -69 -54 -69 -67 -1 -15 -45 -60 -76 -78 -31 -17 -71 -87 -66 -112 2
-7 -3 -13 -11 -13 -23 0 -67 -44 -67 -67 0 -12 -7 -28 -15 -37 -8 -8 -15 -23
-15 -34 0 -11 -7 -22 -15 -26 -8 -3 -15 -17 -15 -31 0 -14 -4 -25 -8 -25 -4 0
-16 -25 -26 -54 -11 -30 -25 -57 -32 -60 -8 -3 -14 -15 -14 -26 0 -11 -7 -23
-15 -26 -8 -4 -15 -14 -15 -24 0 -11 -4 -21 -9 -25 -12 -7 -41 -64 -41 -80 0
-7 -7 -18 -15 -25 -8 -7 -15 -23 -15 -37 0 -13 -7 -26 -15 -29 -8 -4 -15 -17
-15 -30 0 -13 -4 -24 -10 -24 -5 0 -10 -5 -10 -11 0 -12 -23 -68 -46 -111 -8
-14 -14 -33 -14 -42 0 -9 -7 -19 -15 -22 -8 -4 -15 -12 -15 -18 0 -30 -44 -98
-100 -154 -33 -33 -60 -66 -60 -71 0 -6 -7 -11 -15 -11 -8 0 -15 -4 -15 -9 0
-6 -11 -22 -25 -37 -29 -31 -20 -44 28 -44 15 0 27 -4 27 -9 0 -15 -30 -41
-46 -41 -8 0 -14 -7 -14 -15 0 -8 -5 -15 -10 -15 -6 0 -20 -9 -31 -19 -17 -16
-19 -23 -10 -40 7 -12 19 -21 29 -21 9 0 26 -7 36 -15 11 -8 30 -15 42 -15 12
0 24 -6 26 -12 4 -10 50 -14 174 -16 93 -2 173 -7 178 -13 6 -5 30 -9 54 -9
40 0 105 -28 122 -51 3 -4 86 -10 185 -13 217 -6 337 -17 356 -33 9 -7 79 -14
184 -17 94 -4 188 -11 210 -16 22 -5 83 -10 135 -10 52 0 136 -7 185 -14 50
-8 157 -14 238 -15 81 -1 159 -6 172 -11 42 -16 459 -23 590 -10 66 7 190 16
275 20 147 7 230 19 275 40 11 5 32 14 47 19 19 7 25 15 21 29 -4 16 2 21 34
25 63 9 143 30 143 38 0 4 15 10 33 14 33 6 70 20 97 36 8 5 22 12 30 15 73
30 127 62 156 91 15 17 33 23 64 23 43 0 137 22 178 42 25 13 30 55 7 64 -8 4
-15 12 -15 20 0 8 -7 14 -15 14 -8 0 -15 4 -15 9 0 12 -59 71 -71 71 -5 0 -9
7 -9 15 0 8 -7 15 -15 15 -8 0 -15 5 -15 11 0 7 -10 21 -22 33 -13 12 -43 48
-68 81 -25 33 -51 64 -57 68 -7 4 -13 12 -13 18 0 10 -4 15 -44 60 -13 15 -34
44 -47 65 -13 22 -28 44 -35 49 -13 12 -103 149 -121 185 -4 8 -12 20 -17 27
-22 25 -32 40 -51 78 -11 22 -22 42 -25 45 -15 13 -70 105 -70 115 0 7 -7 18
-15 25 -8 7 -15 21 -15 31 0 11 -4 19 -10 19 -5 0 -12 11 -16 24 -3 14 -12 27
-20 30 -8 3 -14 16 -14 30 0 13 -3 26 -7 28 -13 5 -43 68 -43 89 0 10 -4 19
-10 19 -5 0 -12 11 -16 25 -3 14 -10 25 -15 25 -5 0 -12 18 -15 40 -4 22 -10
40 -15 40 -5 0 -9 7 -9 15 0 9 -7 18 -15 21 -8 4 -15 16 -15 28 0 12 -7 31
-15 42 -8 10 -15 29 -15 42 0 12 -4 22 -9 22 -5 0 -12 15 -16 33 -3 17 -10 41
-14 52 -19 49 -41 124 -41 142 0 11 -7 28 -15 39 -8 10 -15 31 -15 45 0 15 -7
32 -15 39 -8 7 -15 21 -15 30 0 23 -28 76 -57 109 -13 14 -23 31 -23 37 0 7
-7 14 -15 18 -8 3 -15 12 -15 21 0 8 -8 16 -17 16 -49 4 -132 -5 -172 -17 -34
-10 -49 -10 -60 -2 -31 23 -111 102 -111 110 0 5 -19 28 -42 51 -24 24 -63 69
-88 100 -25 31 -48 57 -52 57 -5 0 -8 9 -8 20 0 11 -7 23 -15 26 -8 4 -15 12
-15 20 0 8 -4 14 -10 14 -5 0 -10 7 -10 16 0 8 -12 31 -26 50 -30 38 -62 95
-96 167 -35 72 -48 62 -48 -35z m180 -713 c22 -30 40 -61 40 -70 0 -8 6 -15
14 -15 7 0 16 -8 20 -17 8 -25 26 -53 64 -97 6 -8 12 -28 12 -45 0 -16 6 -31
15 -35 8 -3 15 -16 15 -28 0 -13 7 -32 15 -42 8 -11 15 -30 15 -43 0 -13 5
-23 10 -23 6 0 10 -8 10 -18 0 -10 7 -28 16 -40 8 -12 11 -22 6 -22 -6 0 -13
-12 -17 -27 -3 -15 -10 -30 -13 -33 -10 -8 -32 -43 -38 -62 -4 -10 -13 -18
-20 -18 -8 0 -14 -7 -14 -15 0 -8 -4 -15 -10 -15 -5 0 -10 -6 -10 -14 0 -7 -6
-19 -14 -25 -7 -6 -16 -25 -20 -41 -5 -27 -9 -30 -45 -30 -39 0 -40 -1 -43
-37 -3 -33 -6 -38 -32 -41 -39 -5 -70 29 -64 69 3 16 1 32 -4 35 -13 8 -9 46
7 78 20 38 19 53 -4 59 -14 3 -17 11 -14 31 5 23 2 26 -21 26 -16 0 -26 -5
-26 -15 0 -8 -5 -15 -10 -15 -6 0 -21 -11 -34 -25 -13 -14 -26 -25 -30 -25 -9
0 -7 65 3 76 13 13 31 128 40 257 5 60 14 114 20 120 6 6 11 23 11 39 0 15 6
42 14 60 8 18 21 49 30 70 9 20 16 41 16 46 0 11 16 20 37 21 7 1 31 -24 53
-54z m-700 -635 c0 -11 -7 -23 -15 -26 -8 -4 -15 -12 -15 -20 0 -8 -9 -14 -20
-14 -27 0 -25 10 8 48 31 37 42 40 42 12z m580 10 c0 -5 -7 -10 -16 -10 -8 0
-12 5 -9 10 3 6 10 10 16 10 5 0 9 -4 9 -10z m-117 -45 c-7 -21 -13 -19 -13 6
0 11 4 18 10 14 5 -3 7 -12 3 -20z m77 0 c10 -12 9 -16 -4 -21 -9 -3 -16 -12
-16 -20 0 -8 -10 -14 -25 -14 -28 0 -30 5 -12 43 13 30 38 35 57 12z m-98 -76
c-1 -12 -9 -30 -17 -39 -8 -9 -15 -22 -15 -28 0 -7 -4 -12 -10 -12 -15 0 -12
32 5 54 8 11 15 28 15 39 0 11 5 17 13 14 6 -2 11 -15 9 -28z m608 -71 c11
-12 20 -31 20 -43 0 -12 7 -30 15 -41 8 -10 15 -28 15 -39 0 -11 7 -33 15 -49
8 -15 15 -34 15 -42 0 -8 9 -19 20 -26 17 -11 30 -68 16 -68 -2 0 -11 -2 -18
-5 -8 -3 -25 4 -38 15 -22 19 -25 19 -41 4 -22 -20 -49 -12 -49 14 0 12 -11
24 -30 32 -16 7 -30 19 -30 26 0 8 -10 14 -25 14 -20 0 -25 -5 -25 -25 0 -14
-4 -25 -9 -25 -5 0 -9 33 -8 73 2 66 5 75 35 107 17 19 32 40 32 47 0 7 5 13
10 13 6 0 19 9 30 20 25 25 25 25 50 -2z m-940 2 c0 -5 -4 -10 -10 -10 -5 0
-10 5 -10 10 0 6 5 10 10 10 6 0 10 -4 10 -10z m266 -57 c-11 -11 -17 4 -9 23
7 18 8 18 11 1 2 -10 1 -21 -2 -24z m222 25 c7 -7 12 -28 12 -47 0 -33 0 -34
20 -16 19 17 20 17 26 0 5 -11 1 -22 -9 -30 -10 -7 -17 -20 -17 -29 0 -9 -5
-16 -10 -16 -6 0 -14 -8 -17 -17 -7 -19 -57 -73 -68 -73 -3 0 -15 -9 -26 -19
-16 -15 -27 -17 -52 -10 -18 4 -39 8 -47 7 -8 -1 -34 0 -58 0 l-43 2 25 24
c15 13 26 28 26 35 0 6 7 11 15 11 8 0 15 4 15 9 0 16 40 23 55 11 11 -9 15
-9 15 -1 0 6 -4 11 -9 11 -8 0 -9 20 -2 62 0 4 10 12 21 18 16 9 22 7 27 -7 9
-24 29 -43 45 -43 9 1 8 4 -3 13 -30 22 -32 55 -7 87 25 31 47 37 66 18z
m-463 -187 c3 -5 1 -12 -5 -16 -5 -3 -10 1 -10 9 0 18 6 21 15 7z m795 -73 c0
-19 -2 -20 -10 -8 -13 19 -13 30 0 30 6 0 10 -10 10 -22z m-50 -68 c0 -5 -4
-10 -10 -10 -5 0 -10 5 -10 10 0 6 5 10 10 10 6 0 10 -4 10 -10z m190 0 c0 -5
7 -10 15 -10 22 0 18 -38 -6 -51 -17 -9 -24 -7 -40 10 -19 21 -24 42 -12 54
10 11 43 8 43 -3z m-1823 -112 c-3 -8 -6 -5 -6 6 -1 11 2 17 5 13 3 -3 4 -12
1 -19z m1683 -148 c0 -11 -4 -20 -9 -20 -5 0 -12 -13 -16 -30 -4 -16 -11 -32
-16 -35 -5 -4 -9 -21 -9 -39 0 -19 -6 -39 -14 -45 -8 -6 -17 -32 -21 -56 -3
-25 -10 -45 -16 -45 -5 0 -9 -12 -9 -26 0 -16 -5 -24 -12 -22 -7 3 -13 13 -13
23 0 10 -6 20 -12 22 -7 3 -13 -3 -13 -12 0 -10 -8 -15 -22 -14 -41 4 -58 -1
-58 -15 0 -8 -13 -17 -30 -21 -20 -4 -30 -13 -30 -25 0 -10 -7 -20 -15 -24 -8
-3 -15 -15 -15 -26 0 -11 -4 -20 -10 -20 -5 0 -10 5 -10 10 0 6 -13 10 -30 10
-25 0 -30 -4 -30 -25 0 -31 -7 -31 -36 0 -19 20 -33 25 -72 25 -35 0 -52 -4
-56 -15 -4 -10 -19 -15 -49 -15 -24 0 -47 -4 -52 -9 -6 -5 -23 -11 -40 -13
-20 -2 -34 -11 -42 -28 -8 -16 -24 -27 -45 -32 -42 -8 -60 7 -31 27 11 8 42
35 67 60 26 25 49 45 52 45 6 0 76 53 108 82 10 9 24 14 32 11 7 -3 27 5 44
17 17 12 37 19 45 17 8 -4 27 10 46 34 17 21 40 39 50 39 11 0 19 5 19 10 0 6
6 10 14 10 8 0 21 6 28 13 21 19 71 45 218 115 19 10 41 23 48 30 7 6 20 12
28 12 8 0 14 5 14 10 0 6 5 10 10 10 6 0 10 -9 10 -20z"/>
<path d="M1730 2551 c-23 -26 -40 -59 -40 -75 0 -7 -7 -19 -15 -26 -14 -11
-22 -50 -10 -50 8 0 45 39 45 48 0 4 14 22 30 40 30 33 41 83 18 81 -7 0 -20
-9 -28 -18z"/>
</g>
</svg>
